<svg width="108" height="107" viewBox="0 0 108 107" fill="none" xmlns="http://www.w3.org/2000/svg">
<g clip-path="url(#clip0_9247_17107)">
<path d="M39.8542 60.6329C41.611 60.6329 43.3284 60.1119 44.7892 59.1359C46.25 58.1598 47.3885 56.7725 48.0609 55.1494C48.7332 53.5262 48.9091 51.7402 48.5663 50.0171C48.2236 48.294 47.3776 46.7112 46.1353 45.4689C44.893 44.2266 43.3102 43.3806 41.5871 43.0379C39.864 42.6951 38.078 42.871 36.4549 43.5434C34.8317 44.2157 33.4444 45.3542 32.4684 46.815C31.4923 48.2758 30.9713 49.9932 30.9713 51.75C30.9677 52.9176 31.1951 54.0743 31.6402 55.1536C32.0853 56.2329 32.7395 57.2136 33.5651 58.0391C34.3906 58.8647 35.3713 59.5189 36.4506 59.964C37.53 60.4092 38.6867 60.6365 39.8542 60.6329Z" fill="white"/>
<path d="M68.1676 60.6329C69.925 60.6356 71.6437 60.1169 73.1063 59.1424C74.5689 58.168 75.7095 56.7816 76.3839 55.1588C77.0583 53.5359 77.2362 51.7494 76.8949 50.0254C76.5537 48.3014 75.7088 46.7174 74.467 45.4737C73.2253 44.2301 71.6425 43.3827 69.9191 43.0389C68.1956 42.695 66.4089 42.8701 64.7849 43.5421C63.161 44.214 61.7729 45.3525 60.7963 46.8136C59.8196 48.2746 59.2983 49.9926 59.2983 51.75C59.2947 52.9164 59.5216 54.072 59.9659 55.1504C60.4102 56.2289 61.0631 57.2089 61.8872 58.0343C62.7114 58.8597 63.6904 59.5142 64.7682 59.9601C65.8459 60.406 67.0012 60.6347 68.1676 60.6329Z" fill="white"/>
<path d="M99.6731 87.004L97.1751 84.506L84.2674 71.5983C81.1553 76.8917 76.7124 81.2789 71.3801 84.3241C66.0477 87.3692 60.0115 88.9663 53.871 88.9568C47.6618 88.9636 41.5598 87.3385 36.1765 84.2444C30.7931 81.1502 26.3175 76.6957 23.1979 71.327L10.2902 84.2266C13.7267 89.0984 17.9473 93.3667 22.7802 96.8576C31.8422 103.363 42.7184 106.858 53.8737 106.85C64.9244 106.884 75.705 103.436 84.6851 96.996L87.1858 99.494C88.0059 100.314 88.9795 100.965 90.051 101.408C91.1226 101.852 92.271 102.081 93.4308 102.081C94.5906 102.081 95.7391 101.852 96.8106 101.408C97.8821 100.965 98.8557 100.314 99.6758 99.494C100.496 98.6739 101.146 97.7003 101.59 96.6287C102.034 95.5572 102.263 94.4088 102.263 93.249C102.263 92.0892 102.034 90.9407 101.59 89.8692C101.146 88.7977 100.496 87.8241 99.6758 87.004H99.6731Z" fill="url(#paint0_radial_9247_17107)"/>
<path d="M106.334 44.8093C104.992 36.7888 101.809 29.1883 97.0367 22.6039C93.5458 17.7701 89.2776 13.5487 84.4057 10.1112C75.4041 3.76574 64.6547 0.371109 53.6414 0.395887C42.6282 0.420664 31.8941 3.86363 22.9212 10.2495C18.0922 13.6912 13.8702 17.9132 10.4285 22.7422C5.74448 29.2438 2.65437 36.7554 1.40748 44.6709C0.963229 47.6123 0.731183 50.5817 0.713135 53.5563C0.73121 56.5301 0.963256 59.4986 1.40748 62.439H19.5797C18.1007 56.6096 18.1007 50.5031 19.5797 44.6736C20.3977 41.5046 21.6626 38.468 23.3362 35.6553C26.4479 30.3615 30.8907 25.974 36.2231 22.9288C41.5555 19.8836 47.5919 18.2867 53.7326 18.2968C59.9688 18.2778 66.0992 19.9068 71.5034 23.0189C76.6838 26.0722 81.0242 30.3651 84.1345 35.5116C85.7998 38.4246 87.1885 41.4786 88.0211 44.8093C89.5002 50.6387 89.5002 56.7452 88.0211 62.5746H106.34C106.784 59.6342 107.016 56.6657 107.034 53.6919C107.014 50.7181 106.78 47.7496 106.334 44.8093Z" fill="url(#paint1_radial_9247_17107)"/>
</g>
<defs>
<radialGradient id="paint0_radial_9247_17107" cx="0" cy="0" r="1" gradientUnits="userSpaceOnUse" gradientTransform="translate(53.8628 54.0553) scale(58.3437 58.3437)">
<stop offset="0.55" stop-color="#178064"/>
<stop offset="0.57" stop-color="#178764"/>
<stop offset="0.64" stop-color="#179A64"/>
<stop offset="0.71" stop-color="#17A864"/>
<stop offset="0.81" stop-color="#17B064"/>
<stop offset="1" stop-color="#17B264"/>
</radialGradient>
<radialGradient id="paint1_radial_9247_17107" cx="0" cy="0" r="1" gradientUnits="userSpaceOnUse" gradientTransform="translate(53.8709 54.0554) scale(58.3355 58.3355)">
<stop offset="0.55" stop-color="#178064"/>
<stop offset="0.57" stop-color="#178764"/>
<stop offset="0.64" stop-color="#179A64"/>
<stop offset="0.71" stop-color="#17A864"/>
<stop offset="0.81" stop-color="#17B064"/>
<stop offset="1" stop-color="#17B264"/>
</radialGradient>
<clipPath id="clip0_9247_17107">
<rect width="106.316" height="106.454" fill="white" transform="translate(0.713135 0.395752)"/>
</clipPath>
</defs>
</svg>
