<svg width="91" height="30" viewBox="0 0 91 30" fill="none" xmlns="http://www.w3.org/2000/svg">
<path d="M17.5668 6.52893L8.76873 28.4765H4.51385L6.98708 22.0316L0.86084 6.52893H5.1438L9.25386 16.8364L13.5711 6.52893H17.5668Z" fill="#FFFFFF"/>
<path d="M32.0124 14.3531C32.0124 16.7853 31.3164 18.7432 29.9244 20.2289C28.532 21.7142 26.6493 22.4566 24.2754 22.4566C21.9014 22.4566 19.9965 21.7254 18.6271 20.2635C17.258 18.8027 16.5732 16.8315 16.5732 14.3531C16.5732 12.014 17.2929 10.0789 18.7301 8.54707C20.1681 7.01591 22.0168 6.24963 24.2757 6.24963C26.5346 6.24963 28.4186 7.01591 29.8559 8.54707C31.2942 10.0789 32.0124 12.014 32.0124 14.3531ZM27.6648 14.3874C27.6648 11.4592 26.5357 9.99526 24.2754 9.99526C23.1343 9.99526 22.2678 10.4521 21.6744 11.3657C21.1493 12.1628 20.8867 13.1692 20.8867 14.3874C20.8867 17.2702 22.0278 18.711 24.3103 18.711C26.5928 18.711 27.6651 17.2702 27.6651 14.3874H27.6648Z" fill="#FFFFFF"/>
<path d="M47.4521 22.1758H43.3098V13.3813C43.3098 12.5209 43.0753 11.8047 42.6077 11.2355C42.14 10.6656 41.4953 10.3799 40.6733 10.3799C39.8513 10.3799 39.1046 10.6656 38.5 11.2355C37.8947 11.8047 37.5927 12.5209 37.5927 13.3813V22.1758H33.4844V6.59929H37.5927V7.92951C38.7105 6.88004 40.1375 6.35425 41.8719 6.35425C43.6063 6.35425 44.8847 6.86778 45.9115 7.8945C46.9385 8.92193 47.4521 10.2875 47.4521 11.9895V22.1758Z" fill="#FFFFFF"/>
<path d="M63.5757 22.1758H59.4673V20.7406C58.8285 21.6977 57.6186 22.1758 55.8386 22.1758C53.7386 22.1758 52.0216 21.4932 50.6861 20.1277C49.3519 18.7628 48.6836 17.0076 48.6836 14.86C48.6836 12.7124 49.3111 10.7181 50.5669 9.08506C51.9128 7.31097 53.6475 6.42427 55.7702 6.42427C57.0249 6.42427 58.2571 6.78693 59.467 7.5098V3.0287L63.5753 1.5238V22.1758H63.5757ZM59.4673 16.1552V12.5503C58.7829 11.1038 57.8011 10.3799 56.523 10.3799C54.0809 10.3799 52.8601 11.8733 52.8601 14.86C52.8601 16.0267 53.1857 16.9428 53.8362 17.6083C54.4863 18.2737 55.3816 18.6056 56.523 18.6056C57.6645 18.6056 58.5994 17.7886 59.4673 16.1552Z" fill="#FFFFFF"/>
<path d="M79.699 16.2959H68.9495C68.9266 16.8557 69.2008 17.3748 69.7712 17.8537C70.3412 18.3319 70.9232 18.6182 71.5169 18.711C71.813 18.7582 72.1328 18.7799 72.4751 18.7799C73.685 18.7799 74.5636 18.3837 75.1117 17.5904L78.0553 19.8312C76.7317 21.5815 74.8717 22.4566 72.4751 22.4566C70.0786 22.4566 68.2476 21.7271 66.8446 20.2684C65.4403 18.8104 64.7388 16.8788 64.7388 14.4753C64.7388 11.8848 65.4177 9.84296 66.7758 8.34961C68.133 6.85626 70.067 6.10889 72.5785 6.10889C75.0901 6.10889 76.88 7.17166 78.2268 9.29477C79.2077 10.8585 79.6986 13.1916 79.6986 16.2956L79.699 16.2959ZM75.5913 12.9704C75.5913 12.0469 75.2784 11.2677 74.6539 10.633C74.0295 9.99698 73.2636 9.67948 72.355 9.67948C71.4463 9.67948 70.6517 9.99698 69.9714 10.633C69.2895 11.2677 68.9491 12.0469 68.9491 12.9704H75.591H75.5913Z" fill="#FFFFFF"/>
<path d="M90.1393 6.83982L88.7363 10.9393C88.1652 10.6134 87.6627 10.4496 87.2302 10.4496C86.4993 10.4496 85.8889 10.7003 85.3976 11.2005C84.907 11.7007 84.6625 12.3228 84.6625 13.0674V22.1755H80.8623V6.56432H84.6625V7.75487C85.552 6.75125 86.6585 6.24927 87.9828 6.24927C88.85 6.24927 89.5689 6.446 90.1393 6.83947V6.83982Z" fill="#FFFFFF"/>
</svg>
